# xmcd
#
# Track frame offsets:
# 150
# 11143
# 22996
# 33251
# 43893
# 57004
# 71705
# 82991
# 94723
# 112383
# 124164
# 140277
# 152273
# 164243
# 176617
# 189709
# 204238
# 214998
# 228067
# 237591
#
# Disc length: 3290 seconds
#
#
# Revision: 1
# Processed by: cddbd v1.5.1PL0 Copyright (c) Steve Scherf et al.
# Submitted via: FreeRIP 2.941 
#
DISCID=160cd814
DTITLE=Charley Pride - Through The Years
DYEAR=1900
DGENRE=Country
TTITLE0=I'm Just Me
TTITLE1=On The Southbound
TTITLE2=Is Anyone Going To San Antone
TTITLE3=Just Between You And Me
TTITLE4=Crystal Chandeliers
TTITLE5=Kaw-Liga
TTITLE6=I Know One
TTITLE7=Hello Darlin'
TTITLE8=Did You Think To Pray
TTITLE9=The World Stood Still
TTITLE10=Me And Bobby McGee
TTITLE11=Through The Years
TTITLE12=I Think I'll Take A Walk
TTITLE13=A Poor Boy Like Me
TTITLE14=Nobody Home To Go Home To
TTITLE15=I Can't Believe That You've Stopped Loving Me
TTITLE16=Does My Ring Hurt Your Finger
TTITLE17=I'd Rather Love You
TTITLE18=That's My Way
TTITLE19=Kiss An Angel Good Mornin'
EXTD=
EXTT0=
EXTT1=
EXTT2=
EXTT3=
EXTT4=
EXTT5=
EXTT6=
EXTT7=
EXTT8=
EXTT9=
EXTT10=
EXTT11=
EXTT12=
EXTT13=
EXTT14=
EXTT15=
EXTT16=
EXTT17=
EXTT18=
EXTT19=
PLAYORDER=
